<?xml version="1.0"?>
<svg xmlns="http://www.w3.org/2000/svg" xmlns:xlink="http://www.w3.org/1999/xlink" version="1.1" id="Layer_1" x="0px" y="0px" viewBox="0 0 512 512" style="enable-background:new 0 0 512 512;" xml:space="preserve" width="512px" height="512px" class=""><g><g>
	<g>
		<path d="M422.72,42.667h-60.053V32.491c0-17.92-14.571-32.491-32.47-32.491H181.803c-17.899,0-32.469,14.571-32.469,32.491v10.176    H89.28c-25.707,0-46.613,20.907-46.613,46.613v376.107C42.667,491.093,63.573,512,89.28,512h333.44    c25.707,0,46.613-20.907,46.613-46.613V89.28C469.333,63.573,448.427,42.667,422.72,42.667z M192,42.667h128v42.667H192V42.667z     M256,448c-82.325,0-149.333-66.987-149.333-149.333S173.675,149.333,256,149.333s149.333,66.987,149.333,149.333    S338.325,448,256,448z" data-original="#000000" class="active-path" data-old_color="#000000" fill="#40974E"/>
	</g>
</g><g>
	<g>
		<path d="M256,192c-58.816,0-106.667,47.851-106.667,106.667S197.184,405.334,256,405.334s106.667-47.851,106.667-106.667    S314.816,192,256,192z M277.333,362.667c0,11.776-9.536,21.333-21.333,21.333s-21.333-9.557-21.333-21.333v-64    c0-11.776,9.536-21.333,21.333-21.333s21.333,9.557,21.333,21.333V362.667z M256,256c-11.776,0-21.333-9.557-21.333-21.333    s9.557-21.333,21.333-21.333s21.333,9.557,21.333,21.333S267.776,256,256,256z" data-original="#000000" class="active-path" data-old_color="#000000" fill="#40974E"/>
	</g>
</g></g> </svg>
