<?xml version="1.0"?>
<svg xmlns="http://www.w3.org/2000/svg" id="Guide" height="512px" viewBox="0 0 512 512" width="512px" class=""><g><path d="m443.335 162.2a208.362 208.362 0 0 1 -26.64 220.99v-32.53h-21.54l.48-153.43-.01-.29c19.38-.416 36.59-13.916 47.71-34.74z" fill="#f8ec7d" data-original="#F8EC7D" class="active-path" data-old_color="#f8ec7d" style="fill:#E48E66"/><path d="m456.435 106.484c0 21.01-4.89 40.35-13.1 55.72-11.12 20.82-28.33 34.32-47.71 34.74-.32.02-.63.02-.95.02-34.1 0-61.75-40.51-61.75-90.48a124.215 124.215 0 0 1 7.98-44.51c10.6-27.45 30.71-45.97 53.77-45.97 34.11-.004 61.76 40.51 61.76 90.48z" fill="#e48e66" data-original="#E48E66" class="" data-old_color="#e48e66" style="fill:#E48E66"/><path d="m416.7 383.194v90.74a22.015 22.015 0 1 1 -44.03 0v-123.27h44.03z" fill="#e48e66" data-original="#E48E66" class="" data-old_color="#e48e66" style="fill:#E48E66"/><path d="m395.625 196.944.01.29-.48 153.43h-22.49v72.95a207.324 207.324 0 0 1 -222.45 6.94v-104.09h-21.54l.48-174.13a54.682 54.682 0 0 0 54.47-54.57v-40.85c23.01-8.83 46.25-13.09 72.37-13.09a206.447 206.447 0 0 1 84.91 18.15 124.215 124.215 0 0 0 -7.98 44.51c0 49.97 27.65 90.48 61.75 90.48.325 0 .63 0 .95-.02zm-35.62 58.44a102.87 102.87 0 1 0 -102.87 103.06 102.958 102.958 0 0 0 102.87-103.06z" fill="#f8ec7d" data-original="#F8EC7D" class="active-path" data-old_color="#f8ec7d" style="fill:#E48E66"/><path d="m257.135 152.334a103.055 103.055 0 1 1 -102.87 103.05 102.958 102.958 0 0 1 102.87-103.05z" fill="#6fe3ff" data-original="#6FE3FF" class="" data-old_color="#6fe3ff" style="fill:#E48E66"/><path d="m150.215 430.554v39.9a22.02 22.02 0 1 1 -44.04 0v-143.99h44.04z" fill="#e48e66" data-original="#E48E66" class="" data-old_color="#e48e66" style="fill:#E48E66"/><path d="m129.155 152.334-.48 174.13h-22.5v69.036a208.164 208.164 0 0 1 -19.61-263.83 53.21 53.21 0 0 0 4.12 4.63 54.252 54.252 0 0 0 38.47 16.034z" fill="#f8ec7d" data-original="#F8EC7D" class="active-path" data-old_color="#f8ec7d" style="fill:#E48E66"/><g fill="#63316d"><path d="m117.035 110.8v-94.8a6 6 0 0 0 -12 0v94.8a6 6 0 0 0 12 0z" data-original="#000000" class="" style="fill:#696969" data-old_color="#000000"/><path d="m153.216 110.8v-94.8a6 6 0 1 0 -12 0v94.8a6 6 0 0 0 12 0z" data-original="#000000" class="" style="fill:#696969" data-old_color="#000000"/><path d="m450 162.343c8.137-16.351 12.431-35.588 12.431-55.859 0-25.362-6.8-49.286-19.133-67.362-12.813-18.778-30.082-29.122-48.622-29.122-23.172 0-44.584 16.723-56.958 44.059a211.578 211.578 0 0 0 -81.718-16.235c-23.8 0-45.095 3.372-66.369 10.557v-32.381a6 6 0 1 0 -12 0v81.763a48.575 48.575 0 0 1 -48.471 48.571 48.7 48.7 0 0 1 -48.47-48.571v-81.763a6 6 0 0 0 -12 0v81.763a60.665 60.665 0 0 0 10.51 34.009 214.144 214.144 0 0 0 20.975 266.1v72.584a28.02 28.02 0 1 0 56.04 0v-29.651a213.384 213.384 0 0 0 210.45-6.194v39.322a28.015 28.015 0 1 0 56.029 0v-88.633a214.45 214.45 0 0 0 46.8-133.613 212.093 212.093 0 0 0 -19.494-89.344zm-55.324-140.343c30.746 0 55.759 37.9 55.759 84.48 0 19.426-4.285 37.716-12.391 52.893-10.525 19.7-26.033 31.211-42.548 31.568-.078 0-.157 0-.236.01-.2.012-.384.009-.584.009-30.741 0-55.75-37.9-55.75-84.48a118.87 118.87 0 0 1 7.576-42.35c10.036-25.983 28.498-42.13 48.174-42.13zm-340.176 229.683a200.691 200.691 0 0 1 32.759-110.358 59.947 59.947 0 0 0 35.88 16.711l-.447 162.428h-16.516a6 6 0 0 0 -6 6v53.216a201.042 201.042 0 0 1 -45.676-127.997zm89.721 218.771a16.02 16.02 0 1 1 -32.04 0v-137.99h32.04zm111.779-16.891a200.943 200.943 0 0 1 -99.779-26.455v-100.644a6 6 0 0 0 -6-6h-15.529l.447-162.429a60.616 60.616 0 0 0 54.487-60.272v-36.677c21.262-7.671 42.468-11.262 66.374-11.262a199.644 199.644 0 0 1 77.373 15.423 132.851 132.851 0 0 0 -6.442 41.237c0 25.361 6.793 49.284 19.131 67.36 11.638 17.056 26.953 27.156 43.556 28.856l-.444 141.961h-16.508a6 6 0 0 0 -6 6v69.744a200.207 200.207 0 0 1 -110.666 33.158zm154.7 20.37a16.015 16.015 0 1 1 -32.029 0v-117.269h32.029zm6-129.269h-15.526l.445-142.2c15.564-2.217 29.89-11.865 40.853-27.416a200.321 200.321 0 0 1 15.028 76.635 202.609 202.609 0 0 1 -34.8 113.417v-14.436a6 6 0 0 0 -6-6z" data-original="#000000" class="" style="fill:#696969" data-old_color="#000000"/><path d="m257.135 146.334c-60.031 0-108.87 48.92-108.87 109.049s48.835 109.061 108.87 109.061 108.871-48.925 108.871-109.061-48.839-109.049-108.871-109.049zm0 206.11c-53.414 0-96.87-43.541-96.87-97.061s43.456-97.049 96.87-97.049 96.871 43.536 96.871 97.049-43.456 97.061-96.871 97.061z" data-original="#000000" class="" style="fill:#696969" data-old_color="#000000"/></g></g> </svg>
