<svg id="Layer_1" enable-background="new 0 0 256 256" height="512" viewBox="0 0 256 256" width="512" xmlns="http://www.w3.org/2000/svg"><path d="m128 53.801c-68.483 0-124 55.517-124 124h79.593c0-24.525 19.882-44.407 44.407-44.407s44.407 19.882 44.407 44.407h79.593c0-68.484-55.517-124-124-124z" fill="#ff4397"/><path d="m128 67.066c-61.157 0-110.735 49.577-110.735 110.734h66.328c0-24.525 19.882-44.407 44.407-44.407s44.407 19.882 44.407 44.407h66.327c0-61.156-49.577-110.734-110.734-110.734z" fill="#f9934e"/><path d="m128 80.332c-53.831 0-97.469 43.638-97.469 97.469h53.062c0-24.525 19.882-44.407 44.407-44.407s44.407 19.882 44.407 44.407h53.062c0-53.831-43.638-97.469-97.469-97.469z" fill="#fcc24c"/><path d="m128 93.597c-46.504 0-84.204 37.699-84.204 84.203h39.797c0-24.525 19.882-44.407 44.407-44.407s44.407 19.882 44.407 44.407h39.797c0-46.504-37.7-84.203-84.204-84.203z" fill="#7bac51"/><path d="m128 106.863c-39.178 0-70.938 31.76-70.938 70.938h26.531c0-24.525 19.882-44.407 44.407-44.407s44.407 19.882 44.407 44.407h26.531c0-39.178-31.76-70.938-70.938-70.938z" fill="#526faa"/><path d="m128 120.128c-31.852 0-57.672 25.821-57.672 57.672h13.266c0-24.525 19.882-44.407 44.407-44.407s44.407 19.882 44.407 44.407h13.265c-.001-31.851-25.821-57.672-57.673-57.672z" fill="#8852a8"/><g fill="#690589"><path d="m185.673 179.801h-13.266c-1.104 0-2-.896-2-2 0-23.383-19.023-42.407-42.407-42.407s-42.407 19.024-42.407 42.407c0 1.104-.896 2-2 2h-13.266c-1.104 0-2-.896-2-2 0-32.903 26.77-59.672 59.673-59.672s59.673 26.769 59.673 59.672c0 1.104-.896 2-2 2zm-11.309-4h9.273c-1.056-29.776-25.608-53.672-55.638-53.672-30.029 0-54.582 23.897-55.638 53.672h9.273c1.051-24.665 21.445-44.407 46.364-44.407s45.316 19.742 46.366 44.407z"/><path d="m198.939 179.801h-26.531c-1.104 0-2-.896-2-2 0-23.383-19.023-42.407-42.407-42.407s-42.407 19.024-42.407 42.407c0 1.104-.896 2-2 2h-26.53c-1.104 0-2-.896-2-2 0-40.218 32.72-72.938 72.938-72.938 40.219 0 72.939 32.72 72.939 72.938-.002 1.104-.898 2-2.002 2zm-24.575-4h22.546c-1.062-37.092-31.566-66.938-68.91-66.938s-67.848 29.846-68.909 66.938h22.545c1.051-24.665 21.445-44.407 46.364-44.407s45.314 19.742 46.364 44.407z"/><path d="m212.203 179.801h-39.796c-1.104 0-2-.896-2-2 0-23.383-19.023-42.407-42.407-42.407s-42.407 19.024-42.407 42.407c0 1.104-.896 2-2 2h-39.796c-1.104 0-2-.896-2-2 0-47.533 38.671-86.204 86.203-86.204s86.203 38.671 86.203 86.204c0 1.104-.895 2-2 2zm-37.839-4h35.814c-1.066-44.406-37.521-80.204-82.179-80.204s-81.112 35.798-82.179 80.204h35.814c1.051-24.665 21.445-44.407 46.364-44.407s45.316 19.742 46.366 44.407z"/><path d="m225.469 179.801h-53.062c-1.104 0-2-.896-2-2 0-23.383-19.023-42.407-42.407-42.407s-42.407 19.024-42.407 42.407c0 1.104-.896 2-2 2h-53.062c-1.104 0-2-.896-2-2 0-54.848 44.621-99.469 99.469-99.469s99.469 44.622 99.469 99.469c0 1.104-.896 2-2 2zm-51.105-4h49.084c-1.068-51.722-43.474-93.469-95.448-93.469s-94.38 41.747-95.448 93.469h49.084c1.051-24.665 21.445-44.407 46.364-44.407s45.314 19.742 46.364 44.407z"/><path d="m238.734 179.801h-66.327c-1.104 0-2-.896-2-2 0-23.383-19.023-42.407-42.407-42.407s-42.407 19.024-42.407 42.407c0 1.104-.896 2-2 2h-66.327c-1.104 0-2-.896-2-2 0-62.162 50.572-112.734 112.734-112.734s112.734 50.572 112.734 112.734c0 1.104-.895 2-2 2zm-64.37-4h62.352c-1.072-59.035-49.429-106.735-108.716-106.735s-107.644 47.7-108.716 106.735h62.351c1.051-24.665 21.445-44.407 46.364-44.407s45.315 19.742 46.365 44.407z"/><path d="m252 179.801h-79.593c-1.104 0-2-.896-2-2 0-23.383-19.023-42.407-42.407-42.407s-42.407 19.024-42.407 42.407c0 1.104-.896 2-2 2h-79.593c-1.105 0-2-.896-2-2 0-69.477 56.523-126 126-126s126 56.523 126 126c0 1.104-.895 2-2 2zm-77.636-4h75.619c-1.073-66.351-55.382-120-121.983-120s-120.91 53.649-121.983 120h75.619c1.051-24.665 21.445-44.407 46.364-44.407s45.314 19.742 46.364 44.407z"/></g><path d="m215.31 164.968c0-.002 0-.003 0-.005 0-16.365-13.267-29.632-29.632-29.632-9.261 0-17.528 4.251-22.962 10.906-3.234-1.68-6.904-2.635-10.8-2.635-12.255 0-22.31 9.394-23.371 21.373-10.046.271-18.108 8.494-18.108 18.605 0 10.282 8.336 18.618 18.618 18.618h86.055c10.282 0 18.618-8.336 18.618-18.618.001-10.214-8.228-18.504-18.418-18.612z" fill="#f4efed"/><path d="m137.19 168.177c-.059 0-.118-.002-.179-.008-1.101-.098-1.913-1.069-1.815-2.169.436-4.922 2.455-9.478 5.838-13.174.745-.813 2.01-.872 2.826-.125.814.746.87 2.011.125 2.826-2.785 3.042-4.446 6.786-4.805 10.826-.091 1.041-.964 1.824-1.99 1.824z" fill="#690589"/><path d="m207.442 164.976-.132-.052c0 .013.001.026.001.039v.005c.044.001.087.008.131.008z" fill="#d6d1cf"/><path d="m215.31 164.968-1.512 1.259c6.973 2.688 11.931 9.433 11.931 17.354 0 10.282-8.336 18.618-18.618 18.618h8c10.282 0 18.618-8.336 18.618-18.618 0-10.215-8.229-18.505-18.419-18.613z" fill="#d6d1cf"/><path d="m136.725 164.976.132-.052c0 .013-.001.026-.001.039v.005c-.044.001-.087.008-.131.008z" fill="#fff"/><path d="m128.856 164.968 1.512 1.259c-6.973 2.688-11.931 9.433-11.931 17.354 0 10.282 8.336 18.618 18.618 18.618h-8c-10.282 0-18.618-8.336-18.618-18.618.001-10.215 8.229-18.505 18.419-18.613z" fill="#fff"/><path d="m215.11 204.199h-86.055c-11.369 0-20.618-9.249-20.618-20.618 0-10.667 7.918-19.355 18.323-20.488 1.916-12.367 12.445-21.491 25.156-21.491 3.534 0 7.057.747 10.281 2.169 6.003-6.655 14.473-10.44 23.48-10.44 16.81 0 30.599 13.179 31.576 29.747 10.349 1.082 18.474 9.904 18.474 20.503.002 11.369-9.247 20.618-20.617 20.618zm-63.193-58.596c-11.201 0-20.393 8.404-21.379 19.549-.09 1.012-.923 1.796-1.939 1.823-9.062.244-16.162 7.539-16.162 16.605 0 9.163 7.455 16.618 16.618 16.618h86.055c9.163 0 16.618-7.455 16.618-16.618 0-9.064-7.375-16.518-16.439-16.613-1.096-.012-1.979-.904-1.979-2v-.005c0-15.236-12.396-27.632-27.632-27.632-8.33 0-16.135 3.708-21.413 10.171-.6.733-1.632.946-2.471.51-3.076-1.597-6.399-2.408-9.877-2.408z" fill="#690589"/></svg>